<svg width="24" height="24" viewBox="0 0 24 24" fill="none" xmlns="http://www.w3.org/2000/svg">
<g clip-path="url(#clip0_460_81)">
<path d="M23.9672 23.296L20.8368 14.9482C20.7606 14.7447 20.566 14.6096 20.3485 14.6096H15.5647L17.3657 11.4338C17.6589 10.9167 18.0789 10.0486 18.3022 9.49762C18.322 9.4491 18.7833 8.2945 18.7833 7.01833C18.7833 3.14913 15.7405 0.000976562 12.0007 0.000976562C8.26087 0.000976562 5.2181 3.14913 5.2181 7.01833C5.2181 8.29554 5.68349 9.45119 5.70332 9.49919C5.92714 10.0491 6.34766 10.9167 6.64036 11.4338L8.43878 14.6096H3.65289C3.43533 14.6096 3.24072 14.7447 3.16402 14.9482L0.0336022 23.296C-0.0263976 23.4562 -0.0039629 23.6356 0.0936019 23.7765C0.191167 23.9168 0.35134 24.0008 0.52247 24.0008H23.4789C23.65 24.0008 23.8102 23.9168 23.9078 23.7765C24.0053 23.6356 24.0272 23.4562 23.9672 23.296ZM7.54766 10.9194C7.27844 10.4435 6.87618 9.6124 6.66905 9.1058C6.66488 9.09588 6.26158 8.09363 6.26158 7.01885C6.26158 3.72461 8.83635 1.04445 12.0007 1.04445C15.165 1.04445 17.7398 3.72461 17.7398 7.01833C17.7398 8.0858 17.3386 9.09641 17.3354 9.1058C17.1299 9.61292 16.7281 10.443 16.4579 10.9188L14.2207 14.8637C14.2186 14.8673 14.2149 14.8705 14.2128 14.8741L12.0612 18.6718C12.0388 18.712 12.0174 18.7402 12.0007 18.7584C11.984 18.7402 11.9636 18.7125 11.9407 18.6729L9.788 14.8736C9.788 14.8736 9.788 14.8731 9.78747 14.8731L7.54766 10.9194ZM1.27534 22.9574L4.01445 15.6531H9.02991L11.0318 19.1868C11.0323 19.1878 11.0329 19.1884 11.0334 19.1889L11.5462 20.0941C11.7315 20.4207 12.2689 20.4207 12.4541 20.0941L12.9685 19.1863C12.9685 19.1863 12.9685 19.1863 12.9685 19.1857L14.973 15.6531H19.9869L22.726 22.9574H1.27534Z" fill="white"/>
<path d="M15.6525 6.78253C15.6525 4.76862 14.0137 3.13037 12.0003 3.13037C9.98692 3.13037 8.34814 4.76862 8.34814 6.78253C8.34814 8.79643 9.98692 10.4347 12.0003 10.4347C14.0137 10.4347 15.6525 8.79643 15.6525 6.78253ZM9.39162 6.78253C9.39162 5.3441 10.5619 4.17384 12.0003 4.17384C13.4387 4.17384 14.609 5.3441 14.609 6.78253C14.609 8.22096 13.4387 9.39121 12.0003 9.39121C10.5619 9.39121 9.39162 8.22096 9.39162 6.78253Z" fill="white"/>
</g>
<defs>
<clipPath id="clip0_460_81">
<rect width="24" height="24" fill="white"/>
</clipPath>
</defs>
</svg>
