<svg width="24" height="24" viewBox="0 0 24 24" fill="none" xmlns="http://www.w3.org/2000/svg">
<path d="M23.9592 12.1991L23.9388 12.2093L20.4956 3.63972H22.0667C22.3484 3.63972 22.5768 3.41132 22.5768 3.12962C22.5768 2.84792 22.3484 2.61953 22.0667 2.61953H12.4667V1.14535C12.4667 0.863649 12.2383 0.635254 11.9566 0.635254C11.6749 0.635254 11.4465 0.863649 11.4465 1.14535V2.61443H1.85165C1.56995 2.61443 1.34155 2.84282 1.34155 3.12452C1.34155 3.40622 1.56995 3.63462 1.85165 3.63462H3.48905L0.0408077 12.1991C0.0153029 12.2589 0.00146653 12.3229 0 12.3879C0 14.7303 1.89896 16.6293 4.24145 16.6293C6.58393 16.6293 8.48289 14.7303 8.48289 12.3879C8.48142 12.3229 8.46759 12.2589 8.44208 12.1991L4.99894 3.62952H11.4465V19.4017C9.01339 19.5853 7.11073 21.0646 7.11073 22.855C7.11073 23.1367 7.33913 23.3651 7.62083 23.3651H16.2925C16.5742 23.3651 16.8025 23.1367 16.8025 22.855C16.8025 21.0646 14.8999 19.5853 12.4667 19.4017V3.62952H18.9807L15.5579 12.1991C15.5324 12.2589 15.5186 12.3229 15.5171 12.3879C15.5171 14.7303 17.4161 16.6293 19.7586 16.6293C22.101 16.6293 24 14.7303 24 12.3879C23.9985 12.3229 23.9847 12.2589 23.9592 12.1991ZM4.23889 15.6168C2.659 15.6146 1.3135 14.4678 1.061 12.9082H7.39639C7.14516 14.4602 5.81107 15.6046 4.23889 15.6168ZM7.21275 11.888H1.27524L4.2491 4.48648L7.21275 11.888ZM15.6905 22.3449H8.21764C8.59511 21.2482 10.1509 20.4015 11.9515 20.4015C13.7522 20.4015 15.3131 21.2482 15.6905 22.3449ZM19.7356 4.49158L22.6993 11.888H16.7617L19.7356 4.49158ZM19.7356 15.6168V15.6219C18.1618 15.6093 16.8271 14.4622 16.5781 12.9082H22.9135C22.661 14.4678 21.3155 15.6146 19.7356 15.6168Z" fill="white"/>
</svg>
